<svg width="142" height="13" viewBox="0 0 142 13" fill="none" xmlns="http://www.w3.org/2000/svg">
<path fill-rule="evenodd" clip-rule="evenodd" d="M116.097 8.68801C115.809 8.45335 115.665 8.11735 115.665 7.68002V5.12002C115.665 4.68268 115.809 4.34668 116.097 4.11201C116.396 3.87735 116.796 3.76001 117.297 3.76001C117.745 3.76001 118.076 3.83468 118.289 3.98401C118.503 4.13335 118.684 4.35735 118.833 4.65601C118.972 4.93335 119.159 5.07201 119.393 5.07201H122.849C122.945 5.07201 123.025 5.04001 123.089 4.97602C123.164 4.90135 123.201 4.81602 123.201 4.72002C123.201 4.06935 122.983 3.43468 122.545 2.81602C122.108 2.18668 121.441 1.66935 120.545 1.26402C119.66 0.848015 118.577 0.640015 117.297 0.640015C116.156 0.640015 115.137 0.816015 114.241 1.16801C113.356 1.50935 112.652 2.04268 112.129 2.76801C111.607 3.48268 111.345 4.37868 111.345 5.45601V7.34402C111.345 8.42135 111.607 9.32268 112.129 10.048C112.652 10.7627 113.356 11.296 114.241 11.648C115.137 11.9893 116.156 12.16 117.297 12.16C118.577 12.16 119.66 11.9573 120.545 11.552C121.441 11.136 122.108 10.6187 122.545 10C122.983 9.37068 123.201 8.73068 123.201 8.08002C123.201 7.98401 123.164 7.90402 123.089 7.84002C123.025 7.76535 122.945 7.72801 122.849 7.72801H119.393C119.159 7.72801 118.972 7.86668 118.833 8.14402C118.684 8.44268 118.503 8.66668 118.289 8.81602C118.076 8.96535 117.745 9.04002 117.297 9.04002C116.796 9.04002 116.396 8.92268 116.097 8.68801ZM135.403 7.37601C135.403 9.00801 134.859 10.2133 133.771 10.992C132.694 11.7707 131.254 12.16 129.451 12.16C127.649 12.16 126.203 11.7707 125.115 10.992C124.038 10.2133 123.499 8.99735 123.499 7.34402V5.45601C123.499 4.36801 123.755 3.46668 124.267 2.75202C124.79 2.02668 125.499 1.49335 126.395 1.15201C127.291 0.810681 128.31 0.640015 129.451 0.640015C130.593 0.640015 131.606 0.810681 132.491 1.15201C133.387 1.49335 134.097 2.02135 134.619 2.73601C135.142 3.45068 135.403 4.34668 135.403 5.42402V7.37601ZM127.819 7.68002C127.819 8.11735 127.963 8.45335 128.251 8.68801C128.55 8.92268 128.95 9.04002 129.451 9.04002C129.953 9.04002 130.347 8.92268 130.635 8.68801C130.934 8.44268 131.083 8.10135 131.083 7.66401V5.13601C131.083 4.69868 130.934 4.36268 130.635 4.12802C130.347 3.88268 129.953 3.76001 129.451 3.76001C128.95 3.76001 128.55 3.87735 128.251 4.11201C127.963 4.34668 127.819 4.68268 127.819 5.12002V7.68002ZM140.885 8.19202C141.002 8.19202 141.104 8.23468 141.189 8.32002C141.274 8.40535 141.317 8.50668 141.317 8.62402V11.568C141.317 11.6854 141.274 11.7867 141.189 11.872C141.104 11.9573 141.002 12 140.885 12H137.525C137.408 12 137.306 11.9573 137.221 11.872C137.136 11.7867 137.093 11.6854 137.093 11.568V8.62402C137.093 8.50668 137.136 8.40535 137.221 8.32002C137.306 8.23468 137.408 8.19202 137.525 8.19202H140.885ZM98.862 0.800049C100.665 0.800049 102.105 1.18938 103.182 1.96805C104.27 2.74672 104.814 3.95205 104.814 5.58405V7.21605C104.814 8.88005 104.275 10.0961 103.198 10.864C102.131 11.6214 100.686 12 98.862 12H93.758C93.6407 12 93.5394 11.9574 93.454 11.872C93.3687 11.7867 93.326 11.6854 93.326 11.568V1.23205C93.326 1.11472 93.3687 1.01338 93.454 0.928049C93.5394 0.842716 93.6407 0.800049 93.758 0.800049H98.862ZM98.942 8.88005C99.4434 8.88005 99.838 8.76272 100.126 8.52805C100.425 8.28272 100.574 7.94138 100.574 7.50405V5.29605C100.574 4.85872 100.425 4.52272 100.126 4.28805C99.838 4.04272 99.4434 3.92005 98.942 3.92005H97.486V8.88005H98.942ZM83.5723 12C83.9136 12 84.1536 11.8187 84.2923 11.456L84.6923 10.3361H88.5963L88.9963 11.456C89.1349 11.8187 89.375 12 89.7163 12H92.7403C92.8363 12 92.9163 11.9681 92.9803 11.904C93.055 11.8294 93.0923 11.744 93.0923 11.648L93.0763 11.552L89.5883 1.32805C89.5456 1.18938 89.4656 1.06672 89.3483 0.960049C89.231 0.853382 89.071 0.800049 88.8683 0.800049H84.4203C84.2176 0.800049 84.0576 0.853382 83.9403 0.960049C83.823 1.06672 83.743 1.18938 83.7003 1.32805L80.2123 11.552L80.1963 11.648C80.1963 11.744 80.2283 11.8294 80.2923 11.904C80.367 11.9681 80.4523 12 80.5483 12H83.5723ZM85.5083 7.21605L86.6443 3.88805L87.7803 7.21605H85.5083ZM74.2345 0.800049C76.0371 0.800049 77.4771 1.18938 78.5545 1.96805C79.6425 2.74672 80.1865 3.95205 80.1865 5.58405V7.21605C80.1865 8.88005 79.6478 10.0961 78.5705 10.864C77.5038 11.6214 76.0585 12 74.2345 12H69.1305C69.0132 12 68.9118 11.9574 68.8265 11.872C68.7411 11.7867 68.6985 11.6854 68.6985 11.568V1.23205C68.6985 1.11472 68.7411 1.01338 68.8265 0.928049C68.9118 0.842716 69.0132 0.800049 69.1305 0.800049H74.2345ZM74.3145 8.88005C74.8158 8.88005 75.2105 8.76272 75.4985 8.52805C75.7971 8.28272 75.9465 7.94138 75.9465 7.50405V5.29605C75.9465 4.85872 75.7971 4.52272 75.4985 4.28805C75.2105 4.04272 74.8158 3.92005 74.3145 3.92005H72.8585V8.88005H74.3145ZM61.367 0.928049C61.2817 0.842716 61.1804 0.800049 61.063 0.800049H58.087C57.9697 0.800049 57.8684 0.842716 57.783 0.928049C57.6977 1.01338 57.655 1.11472 57.655 1.23205V5.93605L54.167 1.12005C54.007 0.906716 53.799 0.800049 53.543 0.800049H50.951C50.8337 0.800049 50.7324 0.842716 50.647 0.928049C50.5617 1.01338 50.519 1.11472 50.519 1.23205V11.568C50.519 11.6854 50.5617 11.7867 50.647 11.872C50.7324 11.9574 50.8337 12 50.951 12H53.927C54.0444 12 54.1457 11.9574 54.231 11.872C54.3164 11.7867 54.359 11.6854 54.359 11.568V7.21605L57.847 11.664C58.0177 11.888 58.231 12 58.487 12H61.063C61.1804 12 61.2817 11.9574 61.367 11.872C61.4524 11.7867 61.495 11.6854 61.495 11.568V1.23205C61.495 1.11472 61.4524 1.01338 61.367 0.928049ZM45.9172 8.72005H48.8132C48.9306 8.72005 49.0319 8.76272 49.1172 8.84805C49.2026 8.93338 49.2452 9.03472 49.2452 9.15205V11.568C49.2452 11.6854 49.2026 11.7867 49.1172 11.872C49.0319 11.9574 48.9306 12 48.8132 12H38.6692C38.5519 12 38.4506 11.9574 38.3652 11.872C38.2799 11.7867 38.2372 11.6854 38.2372 11.568V9.15205C38.2372 9.03472 38.2799 8.93338 38.3652 8.84805C38.4506 8.76272 38.5519 8.72005 38.6692 8.72005H41.5972V4.08005H38.6692C38.5519 4.08005 38.4506 4.03738 38.3652 3.95205C38.2799 3.86672 38.2372 3.76538 38.2372 3.64805V1.23205C38.2372 1.11472 38.2799 1.01338 38.3652 0.928049C38.4506 0.842716 38.5519 0.800049 38.6692 0.800049H48.8132C48.9306 0.800049 49.0319 0.842716 49.1172 0.928049C49.2026 1.01338 49.2452 1.11472 49.2452 1.23205V3.64805C49.2452 3.76538 49.2026 3.86672 49.1172 3.95205C49.0319 4.03738 48.9306 4.08005 48.8132 4.08005H45.9172V8.72005ZM37.8115 11.648C37.8115 11.5947 37.8008 11.5467 37.7795 11.504L35.8115 7.82405C36.9315 7.17338 37.4915 6.12272 37.4915 4.67205C37.4915 3.88272 37.2995 3.19472 36.9155 2.60805C36.5315 2.02138 35.9768 1.57338 35.2515 1.26405C34.5368 0.954716 33.6995 0.800049 32.7395 0.800049H26.5155C26.3982 0.800049 26.2968 0.842716 26.2115 0.928049C26.1262 1.01338 26.0835 1.11472 26.0835 1.23205V11.568C26.0835 11.6854 26.1262 11.7867 26.2115 11.872C26.2968 11.9574 26.3982 12 26.5155 12H29.9715C30.0888 12 30.1902 11.9574 30.2755 11.872C30.3608 11.7867 30.4035 11.6854 30.4035 11.568V8.43205H31.7475L33.1555 11.6C33.2088 11.7174 33.2942 11.8134 33.4115 11.888C33.5395 11.9627 33.6782 12 33.8275 12H37.4595C37.5555 12 37.6355 11.9681 37.6995 11.904C37.7742 11.8294 37.8115 11.744 37.8115 11.648ZM32.9475 5.24805C32.8195 5.39738 32.6382 5.47205 32.4035 5.47205H30.4035V3.77605H32.4035C32.6488 3.77605 32.8302 3.86672 32.9475 4.04805C33.0755 4.21872 33.1395 4.42138 33.1395 4.65605C33.1395 4.89072 33.0755 5.08805 32.9475 5.24805ZM16.8097 11.456C16.6711 11.8187 16.4311 12 16.0897 12H13.0657C12.9697 12 12.8844 11.9681 12.8097 11.904C12.8056 11.8992 12.8016 11.8944 12.7977 11.8894C12.7163 11.9632 12.6211 12 12.512 12H9.61601C9.49867 12 9.39734 11.9574 9.31201 11.872C9.22667 11.7867 9.18401 11.6854 9.18401 11.568V6.60805L8.01601 8.91205C7.98401 8.98672 7.90934 9.07205 7.79201 9.16805C7.67467 9.26405 7.52534 9.31205 7.34401 9.31205H6.25601C6.07467 9.31205 5.92534 9.26405 5.80801 9.16805C5.69067 9.07205 5.61601 8.98672 5.58401 8.91205L4.41601 6.60805V11.568C4.41601 11.6854 4.37334 11.7867 4.28801 11.872C4.20267 11.9574 4.10134 12 3.98401 12H1.08801C0.970673 12 0.869339 11.9574 0.784006 11.872C0.698673 11.7867 0.656006 11.6854 0.656006 11.568V1.23205C0.656006 1.11472 0.698673 1.01338 0.784006 0.928049C0.869339 0.842716 0.970673 0.800049 1.08801 0.800049H4.01601C4.31467 0.800049 4.54401 0.944049 4.70401 1.23205L6.80001 5.07205L8.89601 1.23205C9.05601 0.944049 9.28534 0.800049 9.58401 0.800049H12.512C12.6293 0.800049 12.7307 0.842716 12.816 0.928049C12.9013 1.01338 12.944 1.11472 12.944 1.23205V10.924L16.2177 1.32805C16.2604 1.18938 16.3404 1.06672 16.4577 0.960049C16.5751 0.853382 16.7351 0.800049 16.9377 0.800049H21.3857C21.5884 0.800049 21.7484 0.853382 21.8657 0.960049C21.9831 1.06672 22.0631 1.18938 22.1057 1.32805L25.5937 11.552L25.6097 11.648C25.6097 11.744 25.5724 11.8294 25.4977 11.904C25.4337 11.9681 25.3537 12 25.2577 12H22.2337C21.8924 12 21.6524 11.8187 21.5137 11.456L21.1137 10.3361H17.2097L16.8097 11.456ZM19.1617 3.88805L18.0257 7.21605H20.2977L19.1617 3.88805Z" fill="white"/>
</svg>
