<svg width="155" height="20" viewBox="0 0 155 20" fill="none" xmlns="http://www.w3.org/2000/svg">
<path d="M28.3613 12.0957H31.793V19.0801H28.3613V17.7842C27.9934 18.2961 27.4894 18.7038 26.8496 19.0078C26.2256 19.3118 25.5614 19.4639 24.8574 19.4639C23.9774 19.4639 23.1929 19.3044 22.5049 18.9844C21.833 18.6484 21.2974 18.1679 20.8975 17.5439C20.5135 16.92 20.3213 16.1596 20.3213 15.2637C20.3214 14.2239 20.5695 13.3999 21.0654 12.792C21.5614 12.184 22.2098 11.7278 23.0098 11.4238C23.8255 11.12 24.6973 10.9118 25.625 10.7998C26.569 10.6878 27.4813 10.6244 28.3613 10.6084V12.0957ZM93.7988 12.0957H97.2305V19.0801H93.7988V17.7842C93.4309 18.2961 92.9269 18.7038 92.2871 19.0078C91.6631 19.3118 90.9989 19.4639 90.2949 19.4639C89.4149 19.4639 88.6304 19.3044 87.9424 18.9844C87.2705 18.6484 86.7349 18.1679 86.335 17.5439C85.951 16.92 85.7588 16.1596 85.7588 15.2637C85.7589 14.2239 86.007 13.3999 86.5029 12.792C86.9989 12.184 87.6473 11.7278 88.4473 11.4238C89.263 11.12 90.1348 10.9118 91.0625 10.7998C92.0065 10.6878 92.9188 10.6244 93.7988 10.6084V12.0957ZM112.211 19.0801H108.779V17.6162C108.395 18.1922 107.891 18.6484 107.267 18.9844C106.659 19.3042 105.883 19.4638 104.939 19.4639C103.675 19.4639 102.587 19.1682 101.675 18.5762C100.779 17.9682 100.091 17.1276 99.6113 16.0557C99.1314 14.9837 98.8906 13.7597 98.8906 12.3838C98.8907 10.992 99.1314 9.76035 99.6113 8.68848C100.091 7.61651 100.779 6.77597 101.675 6.16797C102.587 5.55997 103.675 5.25586 104.939 5.25586C105.835 5.25591 106.595 5.41641 107.219 5.73633C107.859 6.05633 108.379 6.51993 108.779 7.12793V1.08008H112.211V19.0801ZM127.142 1.89648C129.398 1.89648 131.158 2.49629 132.422 3.69629C133.702 4.88027 134.47 6.48014 134.726 8.49609H131.03C130.95 7.95209 130.814 7.47166 130.622 7.05566C130.43 6.62404 130.174 6.26441 129.854 5.97656C129.55 5.67256 129.174 5.44771 128.726 5.30371C128.278 5.14383 127.749 5.06445 127.142 5.06445C126.054 5.06452 125.158 5.33604 124.454 5.87988C123.766 6.4078 123.262 7.10397 122.942 7.96777C122.622 8.81577 122.462 9.71225 122.462 10.6562C122.462 11.6162 122.622 12.5286 122.942 13.3926C123.262 14.2403 123.766 14.9366 124.454 15.4805C125.158 16.0243 126.054 16.2958 127.142 16.2959C127.814 16.2959 128.39 16.1998 128.87 16.0078C129.35 15.8158 129.75 15.5443 130.07 15.1924C130.406 14.8404 130.662 14.4159 130.838 13.9199C131.014 13.424 131.126 12.8641 131.174 12.2402H134.822C134.71 13.6802 134.342 14.9443 133.718 16.0322C133.11 17.12 132.254 17.9682 131.15 18.5762C130.062 19.1682 128.726 19.4639 127.142 19.4639C125.366 19.4638 123.854 19.0719 122.606 18.2881C121.374 17.4881 120.438 16.4237 119.798 15.0957C119.158 13.7678 118.838 12.288 118.838 10.6562C118.838 9.45634 119.014 8.32839 119.366 7.27246C119.734 6.20048 120.27 5.26386 120.974 4.46387C121.678 3.66387 122.542 3.0398 123.566 2.5918C124.606 2.12798 125.798 1.89653 127.142 1.89648ZM142.95 5.25586C144.342 5.25586 145.55 5.56001 146.574 6.16797C147.598 6.77597 148.39 7.61648 148.95 8.68848C149.526 9.76034 149.814 10.992 149.814 12.3838C149.814 13.7597 149.526 14.9837 148.95 16.0557C148.39 17.1277 147.598 17.9682 146.574 18.5762C145.55 19.1681 144.342 19.4639 142.95 19.4639C141.574 19.4639 140.366 19.1682 139.326 18.5762C138.302 17.9682 137.503 17.1276 136.927 16.0557C136.367 14.9837 136.086 13.7597 136.086 12.3838C136.086 10.992 136.367 9.76037 136.927 8.68848C137.503 7.61649 138.302 6.77597 139.326 6.16797C140.366 5.55998 141.574 5.25588 142.95 5.25586ZM5.61621 2.28027L8.86719 15.5918L12.1201 2.28027H17.7363V19.0801H14.376V7.29199L11.3281 19.0801H6.4082L3.36035 7.29199V19.0801H0V2.28027H5.61621ZM41.6377 8.61621C40.6938 8.61621 39.9017 8.7198 39.2617 8.92773C38.6378 9.13572 38.1657 9.52013 37.8457 10.0801C37.5417 10.624 37.3897 11.432 37.3896 12.5039V19.0801H33.958V5.63965H37.3896V7.68359C37.4748 7.46225 37.5778 7.24476 37.7012 7.03223C38.0052 6.52023 38.4697 6.09577 39.0938 5.75977C39.7177 5.42388 40.5659 5.25586 41.6377 5.25586V8.61621ZM47.6553 19.0801H44.2236V5.63965H47.6553V19.0801ZM57.7158 5.25586C58.5797 5.25588 59.3476 5.43222 60.0195 5.78418C60.6915 6.13618 61.2195 6.72015 61.6035 7.53613C61.9875 8.33607 62.1797 9.42395 62.1797 10.7998V19.0801H58.748V11.1123C58.748 10.5843 58.7079 10.1039 58.6279 9.67188C58.5479 9.22396 58.3632 8.87218 58.0752 8.61621C57.8032 8.36036 57.3636 8.23245 56.7559 8.23242C56.2759 8.23242 55.7795 8.3677 55.2676 8.63965C54.7556 8.91165 54.3237 9.36037 53.9717 9.98438C53.6358 10.5923 53.4678 11.4321 53.4678 12.5039V19.0801H50.0361V5.63965H53.4678V7.7041C53.6438 7.27213 53.8994 6.87188 54.2354 6.50391C54.5873 6.13594 55.0436 5.8402 55.6035 5.61621C56.1795 5.37621 56.8838 5.25586 57.7158 5.25586ZM75.5693 2.28027C77.3452 2.28029 78.8491 2.6479 80.0811 3.38379C81.3131 4.10379 82.2496 5.09635 82.8896 6.36035C83.5295 7.60825 83.8496 9.04043 83.8496 10.6562C83.8496 12.2881 83.5296 13.7361 82.8896 15C82.2496 16.264 81.3131 17.264 80.0811 18C78.8491 18.7199 77.3452 19.0801 75.5693 19.0801H72.7617V17.4961H69.2812V2.28027H75.5693ZM154.245 19.0801H150.573V15.4082H154.245V19.0801ZM142.95 8.32812C142.182 8.32814 141.551 8.51208 141.055 8.87988C140.559 9.23183 140.19 9.71988 139.95 10.3438C139.71 10.9517 139.59 11.6319 139.59 12.3838C139.59 13.1198 139.71 13.7924 139.95 14.4004C140.19 15.0083 140.559 15.4963 141.055 15.8643C141.551 16.2161 142.182 16.3926 142.95 16.3926C143.734 16.3926 144.367 16.2163 144.847 15.8643C145.343 15.4963 145.71 15.0082 145.95 14.4004C146.19 13.7924 146.311 13.1198 146.311 12.3838C146.311 11.6319 146.19 10.9517 145.95 10.3438C145.71 9.71998 145.343 9.23181 144.847 8.87988C144.367 8.51188 143.734 8.32812 142.95 8.32812ZM105.539 8.32812C104.851 8.32812 104.267 8.51197 103.787 8.87988C103.323 9.2318 102.971 9.71996 102.731 10.3438C102.507 10.9517 102.395 11.6319 102.395 12.3838C102.395 13.1198 102.507 13.7924 102.731 14.4004C102.971 15.0082 103.323 15.4963 103.787 15.8643C104.267 16.2162 104.851 16.3916 105.539 16.3916C106.275 16.3916 106.883 16.2162 107.363 15.8643C107.843 15.4963 108.195 15.0082 108.419 14.4004C108.659 13.7924 108.779 13.1198 108.779 12.3838C108.779 11.6319 108.659 10.9517 108.419 10.3438C108.195 9.71994 107.843 9.23182 107.363 8.87988C106.883 8.51189 106.275 8.32814 105.539 8.32812ZM28.3613 13.5361C26.7775 13.5041 25.6337 13.6245 24.9297 13.8965C24.2417 14.1525 23.8975 14.576 23.8975 15.168C23.8975 15.5998 24.0572 15.9041 24.377 16.0801C24.7129 16.2561 25.0973 16.3437 25.5293 16.3438C25.9453 16.3438 26.3698 16.2803 26.8018 16.1523C27.2496 16.0243 27.6174 15.7761 27.9053 15.4082C28.2092 15.0402 28.3613 14.4962 28.3613 13.7764V13.5361ZM93.7988 13.5361C92.215 13.5041 91.0712 13.6245 90.3672 13.8965C89.6792 14.1525 89.335 14.576 89.335 15.168C89.335 15.5998 89.4947 15.9041 89.8145 16.0801C90.1504 16.2561 90.5348 16.3437 90.9668 16.3438C91.3828 16.3438 91.8073 16.2803 92.2393 16.1523C92.6871 16.0243 93.0549 15.7761 93.3428 15.4082C93.6467 15.0402 93.7988 14.4962 93.7988 13.7764V13.5361ZM72.7617 16.0557H75.5693C76.6572 16.0557 77.5454 15.8084 78.2334 15.3125C78.9213 14.8006 79.4251 14.1362 79.7451 13.3203C80.0651 12.5044 80.2256 11.6162 80.2256 10.6562C80.2256 9.71225 80.0651 8.83162 79.7451 8.01562C79.4251 7.19981 78.9213 6.54377 78.2334 6.04785C77.5454 5.55186 76.6573 5.30372 75.5693 5.30371H72.7617V16.0557ZM25.9854 5.25586C27.7454 5.25586 29.1138 5.73629 30.0898 6.69629C31.0656 7.64026 31.6255 8.94459 31.7695 10.6084H28.3613C28.3133 9.95242 28.1296 9.41599 27.8096 9C27.4896 8.584 26.8814 8.37598 25.9854 8.37598C25.2974 8.37598 24.7694 8.48795 24.4014 8.71191C24.0335 8.91983 23.7778 9.19997 23.6338 9.55176C23.5058 9.88776 23.4414 10.2404 23.4414 10.6084H19.8652C19.8652 9.6964 20.105 8.83162 20.585 8.01562C21.065 7.19971 21.7619 6.53638 22.6738 6.02441C23.5858 5.5125 24.6895 5.25586 25.9854 5.25586ZM91.4229 5.25586C93.1829 5.25586 94.5513 5.73629 95.5273 6.69629C96.5031 7.64026 97.063 8.94459 97.207 10.6084H93.7988C93.7508 9.95242 93.5671 9.416 93.2471 9C92.9271 8.584 92.3189 8.37598 91.4229 8.37598C90.7349 8.37598 90.2069 8.48795 89.8389 8.71191C89.471 8.91983 89.2153 9.19997 89.0713 9.55176C88.9433 9.88776 88.8789 10.2404 88.8789 10.6084H85.3027C85.3027 9.6964 85.5425 8.83162 86.0225 8.01562C86.5025 7.19971 87.1994 6.53638 88.1113 6.02441C89.0233 5.5125 90.127 5.25586 91.4229 5.25586ZM47.7754 3.67188L44.1035 4.51172L43.2637 0.839844L46.9355 0L47.7754 3.67188Z" fill="white"/>
</svg>
