<svg width="141" height="12" viewBox="0 0 141 12" fill="none" xmlns="http://www.w3.org/2000/svg">
<path fill-rule="evenodd" clip-rule="evenodd" d="M115.441 8.048C115.153 7.81333 115.009 7.47733 115.009 7.04V4.48C115.009 4.04267 115.153 3.70667 115.441 3.472C115.74 3.23733 116.14 3.12 116.641 3.12C117.089 3.12 117.42 3.19467 117.633 3.344C117.847 3.49333 118.028 3.71733 118.177 4.016C118.316 4.29333 118.503 4.432 118.737 4.432H122.193C122.289 4.432 122.369 4.4 122.433 4.336C122.508 4.26133 122.545 4.176 122.545 4.08C122.545 3.42933 122.327 2.79467 121.889 2.176C121.452 1.54667 120.785 1.02933 119.889 0.624001C119.004 0.208 117.921 0 116.641 0C115.5 0 114.481 0.176 113.585 0.528C112.7 0.869333 111.996 1.40267 111.473 2.128C110.951 2.84267 110.689 3.73867 110.689 4.816V6.704C110.689 7.78133 110.951 8.68267 111.473 9.408C111.996 10.1227 112.7 10.656 113.585 11.008C114.481 11.3493 115.5 11.52 116.641 11.52C117.921 11.52 119.004 11.3173 119.889 10.912C120.785 10.496 121.452 9.97867 121.889 9.36C122.327 8.73067 122.545 8.09067 122.545 7.44C122.545 7.344 122.508 7.264 122.433 7.2C122.369 7.12533 122.289 7.088 122.193 7.088H118.737C118.503 7.088 118.316 7.22667 118.177 7.504C118.028 7.80267 117.847 8.02667 117.633 8.176C117.42 8.32533 117.089 8.4 116.641 8.4C116.14 8.4 115.74 8.28267 115.441 8.048ZM134.747 6.736C134.747 8.368 134.203 9.57333 133.115 10.352C132.038 11.1307 130.598 11.52 128.795 11.52C126.993 11.52 125.547 11.1307 124.459 10.352C123.382 9.57333 122.843 8.35733 122.843 6.704V4.816C122.843 3.728 123.099 2.82667 123.611 2.112C124.134 1.38667 124.843 0.853333 125.739 0.512C126.635 0.170667 127.654 0 128.795 0C129.937 0 130.95 0.170667 131.835 0.512C132.731 0.853333 133.441 1.38133 133.963 2.096C134.486 2.81067 134.747 3.70667 134.747 4.784V6.736ZM127.163 7.04C127.163 7.47733 127.307 7.81333 127.595 8.048C127.894 8.28267 128.294 8.4 128.795 8.4C129.297 8.4 129.691 8.28267 129.979 8.048C130.278 7.80267 130.427 7.46133 130.427 7.024V4.496C130.427 4.05867 130.278 3.72267 129.979 3.488C129.691 3.24267 129.297 3.12 128.795 3.12C128.294 3.12 127.894 3.23733 127.595 3.472C127.307 3.70667 127.163 4.04267 127.163 4.48V7.04ZM140.229 7.552C140.346 7.552 140.448 7.59467 140.533 7.68C140.618 7.76534 140.661 7.86667 140.661 7.984V10.928C140.661 11.0453 140.618 11.1467 140.533 11.232C140.448 11.3173 140.346 11.36 140.229 11.36H136.869C136.752 11.36 136.65 11.3173 136.565 11.232C136.48 11.1467 136.437 11.0453 136.437 10.928V7.984C136.437 7.86667 136.48 7.76534 136.565 7.68C136.65 7.59467 136.752 7.552 136.869 7.552H140.229ZM98.206 0.160034C100.009 0.160034 101.449 0.549368 102.526 1.32803C103.614 2.1067 104.158 3.31203 104.158 4.94403V6.57603C104.158 8.24004 103.619 9.45604 102.542 10.224C101.475 10.9814 100.03 11.36 98.206 11.36H93.102C92.9847 11.36 92.8834 11.3174 92.798 11.232C92.7127 11.1467 92.67 11.0454 92.67 10.928V0.592034C92.67 0.474701 92.7127 0.373368 92.798 0.288034C92.8834 0.202701 92.9847 0.160034 93.102 0.160034H98.206ZM98.286 8.24004C98.7874 8.24004 99.182 8.1227 99.47 7.88803C99.7687 7.6427 99.918 7.30137 99.918 6.86403V4.65603C99.918 4.2187 99.7687 3.8827 99.47 3.64803C99.182 3.4027 98.7874 3.28004 98.286 3.28004H96.83V8.24004H98.286ZM82.9163 11.36C83.2576 11.36 83.4976 11.1787 83.6363 10.816L84.0363 9.69604H87.9403L88.3403 10.816C88.4789 11.1787 88.7189 11.36 89.0603 11.36H92.0843C92.1803 11.36 92.2603 11.328 92.3243 11.264C92.3989 11.1894 92.4363 11.104 92.4363 11.008L92.4203 10.912L88.9323 0.688034C88.8896 0.549368 88.8096 0.426701 88.6923 0.320034C88.575 0.213367 88.4149 0.160034 88.2123 0.160034H83.7643C83.5616 0.160034 83.4016 0.213367 83.2843 0.320034C83.1669 0.426701 83.0869 0.549368 83.0443 0.688034L79.5563 10.912L79.5403 11.008C79.5403 11.104 79.5723 11.1894 79.6363 11.264C79.711 11.328 79.7963 11.36 79.8923 11.36H82.9163ZM84.8523 6.57603L85.9883 3.24803L87.1243 6.57603H84.8523ZM73.5785 0.160034C75.3811 0.160034 76.8211 0.549368 77.8985 1.32803C78.9865 2.1067 79.5305 3.31203 79.5305 4.94403V6.57603C79.5305 8.24004 78.9918 9.45604 77.9145 10.224C76.8478 10.9814 75.4025 11.36 73.5785 11.36H68.4745C68.3571 11.36 68.2558 11.3174 68.1705 11.232C68.0851 11.1467 68.0425 11.0454 68.0425 10.928V0.592034C68.0425 0.474701 68.0851 0.373368 68.1705 0.288034C68.2558 0.202701 68.3571 0.160034 68.4745 0.160034H73.5785ZM73.6585 8.24004C74.1598 8.24004 74.5545 8.1227 74.8425 7.88803C75.1411 7.6427 75.2905 7.30137 75.2905 6.86403V4.65603C75.2905 4.2187 75.1411 3.8827 74.8425 3.64803C74.5545 3.4027 74.1598 3.28004 73.6585 3.28004H72.2025V8.24004H73.6585ZM60.711 0.288034C60.6257 0.202701 60.5244 0.160034 60.407 0.160034H57.431C57.3137 0.160034 57.2124 0.202701 57.127 0.288034C57.0417 0.373368 56.999 0.474701 56.999 0.592034V5.29603L53.511 0.480035C53.351 0.266701 53.143 0.160034 52.887 0.160034H50.295C50.1777 0.160034 50.0764 0.202701 49.991 0.288034C49.9057 0.373368 49.863 0.474701 49.863 0.592034V10.928C49.863 11.0454 49.9057 11.1467 49.991 11.232C50.0764 11.3174 50.1777 11.36 50.295 11.36H53.271C53.3884 11.36 53.4897 11.3174 53.575 11.232C53.6604 11.1467 53.703 11.0454 53.703 10.928V6.57603L57.191 11.024C57.3617 11.248 57.575 11.36 57.831 11.36H60.407C60.5244 11.36 60.6257 11.3174 60.711 11.232C60.7964 11.1467 60.839 11.0454 60.839 10.928V0.592034C60.839 0.474701 60.7964 0.373368 60.711 0.288034ZM45.2612 8.08003H48.1572C48.2746 8.08003 48.3759 8.1227 48.4612 8.20803C48.5466 8.29337 48.5892 8.3947 48.5892 8.51204V10.928C48.5892 11.0454 48.5466 11.1467 48.4612 11.232C48.3759 11.3174 48.2746 11.36 48.1572 11.36H38.0132C37.8959 11.36 37.7946 11.3174 37.7092 11.232C37.6239 11.1467 37.5812 11.0454 37.5812 10.928V8.51204C37.5812 8.3947 37.6239 8.29337 37.7092 8.20803C37.7946 8.1227 37.8959 8.08003 38.0132 8.08003H40.9412V3.44003H38.0132C37.8959 3.44003 37.7946 3.39737 37.7092 3.31203C37.6239 3.2267 37.5812 3.12537 37.5812 3.00803V0.592034C37.5812 0.474701 37.6239 0.373368 37.7092 0.288034C37.7946 0.202701 37.8959 0.160034 38.0132 0.160034H48.1572C48.2746 0.160034 48.3759 0.202701 48.4612 0.288034C48.5466 0.373368 48.5892 0.474701 48.5892 0.592034V3.00803C48.5892 3.12537 48.5466 3.2267 48.4612 3.31203C48.3759 3.39737 48.2746 3.44003 48.1572 3.44003H45.2612V8.08003ZM37.1555 11.008C37.1555 10.9547 37.1448 10.9067 37.1235 10.864L35.1555 7.18403C36.2755 6.53337 36.8355 5.4827 36.8355 4.03203C36.8355 3.2427 36.6435 2.5547 36.2595 1.96803C35.8755 1.38137 35.3208 0.933368 34.5955 0.624035C33.8808 0.314701 33.0435 0.160034 32.0835 0.160034H25.8595C25.7422 0.160034 25.6408 0.202701 25.5555 0.288034C25.4702 0.373368 25.4275 0.474701 25.4275 0.592034V10.928C25.4275 11.0454 25.4702 11.1467 25.5555 11.232C25.6408 11.3174 25.7422 11.36 25.8595 11.36H29.3155C29.4328 11.36 29.5342 11.3174 29.6195 11.232C29.7048 11.1467 29.7475 11.0454 29.7475 10.928V7.79204H31.0915L32.4995 10.96C32.5528 11.0774 32.6382 11.1734 32.7555 11.248C32.8835 11.3227 33.0222 11.36 33.1715 11.36H36.8035C36.8995 11.36 36.9795 11.328 37.0435 11.264C37.1182 11.1894 37.1555 11.104 37.1555 11.008ZM32.2915 4.60803C32.1635 4.75737 31.9822 4.83204 31.7475 4.83204H29.7475V3.13603H31.7475C31.9928 3.13603 32.1742 3.2267 32.2915 3.40803C32.4195 3.5787 32.4835 3.78137 32.4835 4.01603C32.4835 4.2507 32.4195 4.44803 32.2915 4.60803ZM16.1537 10.816C16.0151 11.1787 15.7751 11.36 15.4337 11.36H12.4097C12.3137 11.36 12.2284 11.328 12.1537 11.264C12.1496 11.2592 12.1456 11.2543 12.1417 11.2494C12.0603 11.3232 11.9651 11.36 11.856 11.36H8.96C8.84267 11.36 8.74133 11.3174 8.656 11.232C8.57067 11.1467 8.528 11.0454 8.528 10.928V5.96803L7.36 8.27203C7.328 8.3467 7.25333 8.43204 7.136 8.52804C7.01867 8.62403 6.86933 8.67204 6.688 8.67204H5.6C5.41867 8.67204 5.26933 8.62403 5.152 8.52804C5.03467 8.43204 4.96 8.3467 4.928 8.27203L3.76 5.96803V10.928C3.76 11.0454 3.71733 11.1467 3.632 11.232C3.54667 11.3174 3.44533 11.36 3.328 11.36H0.432C0.314667 11.36 0.213333 11.3174 0.128 11.232C0.0426667 11.1467 0 11.0454 0 10.928V0.592034C0 0.474701 0.0426667 0.373368 0.128 0.288034C0.213333 0.202701 0.314667 0.160034 0.432 0.160034H3.36C3.65867 0.160034 3.888 0.304034 4.048 0.592034L6.144 4.43203L8.24 0.592034C8.4 0.304034 8.62933 0.160034 8.928 0.160034H11.856C11.9733 0.160034 12.0747 0.202701 12.16 0.288034C12.2453 0.373368 12.288 0.474701 12.288 0.592034V10.284L15.5617 0.688034C15.6044 0.549368 15.6844 0.426701 15.8017 0.320034C15.9191 0.213367 16.0791 0.160034 16.2817 0.160034H20.7297C20.9324 0.160034 21.0924 0.213367 21.2097 0.320034C21.3271 0.426701 21.4071 0.549368 21.4497 0.688034L24.9377 10.912L24.9537 11.008C24.9537 11.104 24.9164 11.1894 24.8417 11.264C24.7777 11.328 24.6977 11.36 24.6017 11.36H21.5777C21.2364 11.36 20.9964 11.1787 20.8577 10.816L20.4577 9.69604H16.5537L16.1537 10.816ZM18.5057 3.24803L17.3697 6.57603H19.6417L18.5057 3.24803Z" fill="#292F36"/>
</svg>
